HIERARCHY
ROOT Hips
{
	OFFSET 0.000000 0.000000 0.000000
	CHANNELS 6 Xposition Yposition Zposition Zrotation Yrotation Xrotation 
	JOINT LHipJoint
	{
		OFFSET 0.000000 0.000000 0.000000
		CHANNELS 3 Zrotation Yrotation Xrotation
		JOINT LeftUpLeg
		{
			OFFSET 1.363060 -1.794630 0.839290
			CHANNELS 3 Zrotation Yrotation Xrotation
			JOINT LeftLeg
			{
				OFFSET 2.448110 -6.726130 0.000000
				CHANNELS 3 Zrotation Yrotation Xrotation
				JOINT LeftFoot
				{
					OFFSET 2.562200 -7.039590 0.000000
					CHANNELS 3 Zrotation Yrotation Xrotation
					JOINT LeftToeBase
					{
						OFFSET 0.157640 -0.433110 2.322550
						CHANNELS 3 Zrotation Yrotation Xrotation
						End Site
						{
							OFFSET 0.000000 0.000000 0.000000
						}
					}
				}
			}
		}
	}
	JOINT RHipJoint
	{
		OFFSET 0.000000 0.000000 0.000000
		CHANNELS 3 Zrotation Yrotation Xrotation
		JOINT RightUpLeg
		{
			OFFSET -1.305520 -1.794630 0.839290
			CHANNELS 3 Zrotation Yrotation Xrotation
			JOINT RightLeg
			{
				OFFSET -2.542530 -6.985550 0.000000
				CHANNELS 3 Zrotation Yrotation Xrotation
				JOINT RightFoot
				{
					OFFSET -2.568260 -7.056230 0.000000
					CHANNELS 3 Zrotation Yrotation Xrotation
					JOINT RightToeBase
					{
						OFFSET -0.164730 -0.452590 2.363150
						CHANNELS 3 Zrotation Yrotation Xrotation
						End Site
						{
							OFFSET 0.000000 0.000000 0.000000
						}
					}
				}
			}
		}
	}
	JOINT LowerBack
	{
		OFFSET 0.000000 0.000000 0.000000
		CHANNELS 3 Zrotation Yrotation Xrotation
		JOINT Spine
		{
			OFFSET 0.028270 2.035590 -0.193380
			CHANNELS 3 Zrotation Yrotation Xrotation
			JOINT Spine1
			{
				OFFSET 0.056720 2.048850 -0.042750
				CHANNELS 3 Zrotation Yrotation Xrotation
				JOINT Neck
				{
					OFFSET 0.000000 0.000000 0.000000
					CHANNELS 3 Zrotation Yrotation Xrotation
					JOINT Neck1
					{
						OFFSET -0.054170 1.746240 0.172020
						CHANNELS 3 Zrotation Yrotation Xrotation
						JOINT Head
						{
							OFFSET 0.104070 1.761360 -0.123970
							CHANNELS 3 Zrotation Yrotation Xrotation
							End Site
							{
								OFFSET 0.000000 0.000000 0.000000
							}
						}
					}
				}
				JOINT LeftShoulder
				{
					OFFSET 0.000000 0.000000 0.000000
					CHANNELS 3 Zrotation Yrotation Xrotation
					JOINT LeftArm
					{
						OFFSET 3.362410 1.200890 -0.311210
						CHANNELS 3 Zrotation Yrotation Xrotation
						JOINT LeftForeArm
						{
							OFFSET 4.983000 -0.000000 -0.000000
							CHANNELS 3 Zrotation Yrotation Xrotation
							JOINT LeftHand
							{
								OFFSET 3.483560 -0.000000 -0.000000
								CHANNELS 3 Zrotation Yrotation Xrotation
								JOINT LeftFingerBase
								{
									OFFSET 0.000000 0.000000 0.000000
									CHANNELS 3 Zrotation Yrotation Xrotation
									JOINT LeftHandIndex1
									{
										OFFSET 0.715260 -0.000000 -0.000000
										CHANNELS 3 Zrotation Yrotation Xrotation
										End Site
										{
											OFFSET 0.000000 0.000000 0.000000
										}
									}
								}
								JOINT LThumb
								{
									OFFSET 0.000000 0.000000 0.000000
									CHANNELS 3 Zrotation Yrotation Xrotation
									End Site
									{
										OFFSET 0.000000 0.000000 0.000000
									}
								}
							}
						}
					}
				}
				JOINT RightShoulder
				{
					OFFSET 0.000000 0.000000 0.000000
					CHANNELS 3 Zrotation Yrotation Xrotation
					JOINT RightArm
					{
						OFFSET -3.136600 1.374050 -0.404650
						CHANNELS 3 Zrotation Yrotation Xrotation
						JOINT RightForeArm
						{
							OFFSET -5.241900 -0.000000 -0.000000
							CHANNELS 3 Zrotation Yrotation Xrotation
							JOINT RightHand
							{
								OFFSET -3.444170 -0.000000 -0.000000
								CHANNELS 3 Zrotation Yrotation Xrotation
								JOINT RightFingerBase
								{
									OFFSET 0.000000 0.000000 0.000000
									CHANNELS 3 Zrotation Yrotation Xrotation
									JOINT RightHandIndex1
									{
										OFFSET -0.622530 -0.000000 -0.000000
										CHANNELS 3 Zrotation Yrotation Xrotation
										End Site
										{
											OFFSET 0.000000 0.000000 0.000000
										}
									}
								}
								JOINT RThumb
								{
									OFFSET 0.000000 0.000000 0.000000
									CHANNELS 3 Zrotation Yrotation Xrotation
									End Site
									{
										OFFSET 0.000000 0.000000 0.000000
									}
								}
							}
						}
					}
				}
			}
		}
	}
}
MOTION
Frames: 12
Frame Time: 0.008333
-9.212401 16.845231 0.764303 -37.445936 84.105748 -12.351675 -11.961701 1.986820 -2.821444 -3.893208 6.205069 -5.998226 -0.595243 1.261459 24.778633 0.728906 3.350188 8.904447 0.788599 -0.000000 -82.412600 7.662081 -0.227309 1.773002 8.002438 7.099176 -42.926907 3.252741 -0.391243 12.262410 0.390348 1.758079 6.401657 -0.178900 0.000000 -48.417900 6.363015 -1.584931 3.982380 0.246045 -1.758712 -2.409742 -8.172004 -1.875998 -0.750679 10.711463 5.446007 5.072697 -4.921146 -0.421047 3.122543 0.000000 0.000000 0.000000 -5.063765 -8.773823 1.539473 -63.812076 -28.469369 22.951731 -1.514208 -66.328753 -0.022173 4.871849 -3.584968 -0.174519 -0.161998 0.427737 -0.000000 0.000000 0.000000 0.000000 0.000000 0.000000 0.000000 21.867717 2.510481 1.891089 58.009935 11.344082 -3.172975 3.032031 23.479084 0.008465 0.492936 6.741150 0.026324 0.059252 -0.101324 -0.000000 0.000000 0.000000 0.000000 0.000000 0.000000 0.000000 
-9.017144 16.803830 0.767279 -42.352566 83.650795 -17.421821 -12.150491 1.898606 -2.857268 -3.057929 6.308692 -6.186867 -0.385098 1.382474 26.711675 0.830420 3.739505 9.740389 0.889400 -0.000000 -82.175500 7.467813 -0.418026 1.725195 8.675549 7.994982 -43.488890 3.135833 -0.789248 15.831942 0.268376 1.310896 5.356601 -0.290001 0.000000 -45.739600 7.182728 -1.584678 4.094645 0.406235 -1.783079 -2.402131 -8.207366 -1.905488 -0.777437 10.788241 5.784514 5.137884 -4.954970 -0.421779 3.140509 0.000000 0.000000 0.000000 -5.371509 -8.617465 1.558392 -63.834201 -27.868415 22.199722 -1.525940 -66.105711 -0.023379 5.116831 -3.774606 -0.191835 -0.162635 0.427050 -0.000000 0.000000 0.000000 0.000000 0.000000 0.000000 0.000000 22.057065 2.711016 1.904454 57.539850 11.787445 -3.583686 3.094558 22.375449 0.008584 0.382498 6.801157 0.019717 0.061626 -0.099323 -0.000000 0.000000 0.000000 0.000000 0.000000 0.000000 0.000000 
-8.824508 16.768543 0.770384 -46.687245 83.231140 -21.924488 -12.339262 1.790611 -2.891939 -2.271065 6.369290 -6.530752 -0.167218 1.505082 28.855590 0.952613 4.223751 10.753721 1.030900 -0.000000 -80.993800 7.283240 -0.585783 1.648140 9.375900 8.728799 -43.858452 3.025628 -1.133377 19.090015 0.131661 0.821638 4.085443 -0.394400 -0.000000 -43.439200 7.942938 -1.613772 4.240836 0.555053 -1.830665 -2.388504 -8.237976 -1.958913 -0.808487 10.907821 6.168190 5.212590 -4.980314 -0.421994 3.160521 0.000000 0.000000 0.000000 -5.631272 -8.461750 1.572563 -63.950772 -27.201317 21.386081 -1.544187 -65.684943 -0.025293 5.476606 -3.922265 -0.212259 -0.164058 0.424155 -0.000000 0.000000 0.000000 0.000000 0.000000 0.000000 0.000000 22.253498 2.940640 1.908357 57.148625 12.286747 -4.218319 3.150072 21.150581 0.008660 0.272974 6.852874 0.013006 0.063609 -0.097513 -0.000000 0.000000 0.000000 0.000000 0.000000 0.000000 0.000000 
-8.634946 16.739949 0.774466 -50.557235 82.866171 -25.961306 -12.521638 1.665720 -2.925279 -1.554401 6.392213 -7.038026 0.049088 1.626097 31.185783 1.096864 4.826527 11.886508 1.225800 -0.000000 -78.743299 7.114082 -0.729579 1.546031 10.079860 9.284976 -44.016297 2.934022 -1.416021 21.938627 -0.015018 0.310467 2.643006 -0.480200 0.000000 -41.736600 8.619474 -1.668047 4.412906 0.687716 -1.896828 -2.369232 -8.263900 -2.031313 -0.838604 11.071019 6.561289 5.285785 -4.997313 -0.421713 3.179774 0.000000 0.000000 0.000000 -5.839186 -8.314023 1.580460 -64.149045 -26.481671 20.527215 -1.566868 -65.066810 -0.027909 5.952356 -4.009819 -0.234895 -0.166087 0.418774 0.000000 0.000000 0.000000 0.000000 0.000000 0.000000 0.000000 22.458394 3.167730 1.902877 56.846486 12.863064 -5.066361 3.196575 19.806287 0.008672 0.140016 6.899051 0.004896 0.065355 -0.096044 -0.000000 0.000000 0.000000 0.000000 0.000000 0.000000 0.000000 
-8.448730 16.718216 0.780413 -54.051695 82.575585 -29.618863 -12.689652 1.528294 -2.956591 -0.932833 6.380123 -7.705889 0.254043 1.743128 33.666556 1.262258 5.573717 13.054507 1.488399 0.000000 -75.369900 6.966945 -0.848902 1.421135 10.760953 9.647184 -43.964562 2.868127 -1.637879 24.336913 -0.165538 -0.191207 1.083461 -0.535900 -0.000000 -40.718201 9.188908 -1.742366 4.603002 0.799702 -1.976324 -2.345633 -8.284444 -2.117296 -0.866475 11.276797 6.947823 5.353282 -5.004762 -0.420945 3.197321 0.000000 0.000000 0.000000 -5.996589 -8.184216 1.583621 -64.410051 -25.719606 19.641058 -1.591904 -64.256116 -0.031129 6.537045 -4.023884 -0.258044 -0.168469 0.410787 -0.000000 0.000000 0.000000 0.000000 0.000000 0.000000 0.000000 22.665963 3.383886 1.888078 56.648173 13.497179 -6.141544 3.230186 18.375321 0.008591 -0.030691 6.937350 -0.005714 0.066845 -0.095058 -0.000000 0.000000 0.000000 0.000000 0.000000 0.000000 0.000000 
-8.265981 16.703255 0.789029 -57.249263 82.378683 -32.976437 -12.835846 1.384143 -2.985313 -0.430863 6.334851 -8.522047 0.439254 1.855382 36.252317 1.445427 6.488265 14.158835 1.831500 0.000000 -70.939500 6.848194 -0.943398 1.274936 11.390251 9.804332 -43.717984 2.829581 -1.804107 26.283527 -0.313601 -0.652489 -0.534082 -0.554601 -0.000000 -40.359100 9.630888 -1.831173 4.803661 0.887289 -2.063901 -2.319848 -8.297803 -2.211619 -0.894405 11.520990 7.333071 5.417924 -4.999836 -0.419663 3.214130 0.000000 0.000000 0.000000 -6.110051 -8.082156 1.586563 -64.709279 -24.924349 18.748442 -1.617697 -63.260602 -0.034781 7.215561 -3.957695 -0.279605 -0.170932 0.400252 -0.000000 0.000000 0.000000 0.000000 0.000000 0.000000 0.000000 22.860595 3.605382 1.864001 56.573344 14.131768 -7.476123 3.245523 16.919554 0.008379 -0.243111 6.962149 -0.018825 0.067914 -0.094673 -0.000000 0.000000 0.000000 0.000000 0.000000 0.000000 0.000000 
-8.086546 16.694689 0.800846 -60.244409 82.289026 -36.127233 -12.955237 1.238894 -3.011576 -0.065842 6.257516 -9.470325 0.599655 1.963666 38.890846 1.641367 7.583825 15.102660 2.261600 -0.000000 -65.672299 6.762024 -1.013431 1.109281 11.941564 9.757516 -43.298643 2.815915 -1.921289 27.798345 -0.453374 -1.051049 -2.142236 -0.536900 0.000000 -40.555500 9.931282 -1.927838 5.008888 0.947212 -2.153644 -2.290037 -8.304964 -2.307510 -0.911678 11.794237 7.653734 5.461917 -4.987108 -0.418066 3.225208 0.000000 0.000000 0.000000 -6.182012 -8.009970 1.586639 -65.029500 -24.119489 17.873028 -1.642967 -62.089425 -0.038598 7.963168 -3.813775 -0.297177 -0.173130 0.387336 -0.000000 0.000000 0.000000 0.000000 0.000000 0.000000 0.000000 23.052740 3.769987 1.830824 56.605058 14.811741 -8.924424 3.242364 15.460307 0.008012 -0.544687 6.986615 -0.037637 0.068916 -0.094831 -0.000000 0.000000 0.000000 0.000000 0.000000 0.000000 0.000000 
-7.910111 16.692043 0.816096 -63.120144 82.314501 -39.153897 -13.045263 1.098403 -3.034597 0.148982 6.146604 -10.529581 0.734240 2.069283 41.524880 1.844865 8.861993 15.808598 2.775700 0.000000 -59.938400 6.710914 -1.059913 0.927384 12.390723 9.518472 -42.734058 2.821321 -1.996767 28.919932 -0.579702 -1.373956 -3.673525 -0.489400 0.000000 -41.149399 10.084330 -2.025700 5.211451 0.978440 -2.240052 -2.257953 -8.304494 -2.399365 -0.919709 12.086059 7.913943 5.488419 -4.965596 -0.416189 3.231420 0.000000 0.000000 0.000000 -6.225366 -7.971161 1.588283 -65.348038 -23.316344 17.037459 -1.667624 -60.754198 -0.042302 8.750533 -3.601369 -0.308560 -0.174809 0.372387 -0.000000 0.000000 0.000000 0.000000 0.000000 0.000000 0.000000 23.228009 3.890836 1.788685 56.750497 15.480024 -10.442415 3.218066 14.076835 0.007459 -0.937128 7.007414 -0.062248 0.069742 -0.095462 -0.000000 0.000000 0.000000 0.000000 0.000000 0.000000 0.000000 
-7.736260 16.694775 0.834717 -65.951004 82.455924 -42.128679 -13.105292 0.967649 -3.053059 0.204911 5.997348 -11.677129 0.845277 2.173118 44.097479 2.051492 10.308292 16.228341 3.358599 0.000000 -54.186500 6.695708 -1.083935 0.733409 12.718208 9.109631 -42.055094 2.837957 -2.038009 29.698703 -0.688591 -1.618930 -5.065091 -0.422700 0.000000 -41.958199 10.091129 -2.117950 5.404645 0.981118 -2.317632 -2.224731 -8.295592 -2.481484 -0.918157 12.383902 8.109573 5.498232 -4.935951 -0.414106 3.232893 0.000000 0.000000 0.000000 -6.253253 -7.965659 1.594222 -65.646744 -22.526312 16.262546 -1.692327 -59.267811 -0.045594 9.544295 -3.336440 -0.312449 -0.175740 0.355831 -0.000000 0.000000 0.000000 0.000000 0.000000 0.000000 0.000000 23.376544 3.969742 1.737860 57.008523 16.099447 -11.939936 3.173159 12.838855 0.006717 -1.419140 7.025402 -0.092459 0.070385 -0.096411 -0.000000 0.000000 0.000000 0.000000 0.000000 0.000000 0.000000 
-7.564379 16.702338 0.855996 -68.848145 82.702000 -45.156508 -13.139354 0.848141 -3.064376 0.110128 5.808057 -12.897692 0.937028 2.274921 46.561621 2.256995 11.882724 16.336738 3.978801 -0.000000 -48.824100 6.711848 -1.089921 0.535547 12.918974 8.570910 -41.294585 2.858023 -2.051627 30.186305 -0.778995 -1.800849 -6.262857 -0.350199 -0.000000 -42.810701 9.970243 -2.198228 5.578633 0.959219 -2.381993 -2.193148 -8.276526 -2.549547 -0.909915 12.671899 8.264866 5.499284 -4.896328 -0.411781 3.231822 0.000000 0.000000 0.000000 -6.288282 -7.982495 1.609241 -65.910629 -21.764457 15.573421 -1.719452 -57.638227 -0.048229 10.310838 -3.040676 -0.308643 -0.175841 0.338183 -0.000000 0.000000 0.000000 0.000000 0.000000 0.000000 0.000000 23.473506 4.039529 1.677939 57.387675 16.602650 -13.379961 3.109486 11.825857 0.005809 -1.957879 7.035336 -0.126170 0.070689 -0.097521 -0.000000 0.000000 0.000000 0.000000 0.000000 0.000000 0.000000 
-7.393952 16.714349 0.879084 -71.863635 83.034362 -48.286274 -13.150179 0.740885 -3.069567 -0.127144 5.582036 -14.167565 1.012962 2.374286 48.872320 2.457238 13.529420 16.125888 4.593700 -0.000000 -44.120400 6.755817 -1.080160 0.339005 12.991430 7.944777 -40.478609 2.873486 -2.044413 30.440678 -0.851292 -1.938721 -7.231253 -0.282400 0.000000 -43.575200 9.737603 -2.259535 5.732641 0.915210 -2.426989 -2.162062 -8.248608 -2.597001 -0.890664 12.936724 8.348374 5.485413 -4.851934 -0.409416 3.226227 0.000000 0.000000 0.000000 -6.337695 -8.022509 1.630265 -66.133988 -21.034528 14.972726 -1.749691 -55.884697 -0.049976 11.011756 -2.741510 -0.298437 -0.174808 0.319910 0.000000 0.000000 0.000000 0.000000 0.000000 0.000000 0.000000 23.527614 4.064815 1.610204 57.864071 17.025154 -14.598396 3.035436 11.048450 0.004798 -2.541300 7.046743 -0.162880 0.070906 -0.098560 -0.000000 0.000000 0.000000 0.000000 0.000000 0.000000 0.000000 
-7.224236 16.730402 0.902938 -75.097252 83.434309 -51.600004 -13.142128 0.645512 -3.062316 -0.494731 5.312696 -15.495656 1.076286 2.469362 51.009438 2.647354 15.176303 15.588225 5.149600 0.000000 -40.109900 6.821817 -1.059004 0.155965 12.940936 7.277959 -39.655932 2.877694 -2.022357 30.522319 -0.908637 -2.058842 -7.956032 -0.227100 0.000000 -44.159600 9.416523 -2.298445 5.849891 0.853752 -2.451473 -2.134080 -8.211989 -2.622618 -0.857206 13.165478 8.366689 5.456726 -4.804182 -0.407058 3.216211 0.000000 0.000000 0.000000 -6.412458 -8.058490 1.657006 -66.317228 -20.358817 14.483660 -1.786067 -54.005338 -0.050790 11.630370 -2.450445 -0.283128 -0.172808 0.301318 0.000000 0.000000 0.000000 0.000000 0.000000 0.000000 0.000000 23.531735 4.052852 1.532762 58.429098 17.363623 -15.509001 2.957513 10.512016 0.003756 -3.154452 7.073342 -0.201989 0.071188 -0.099410 -0.000000 0.000000 0.000000 0.000000 0.000000 0.000000 0.000000 
